<svg width="202" height="100" viewBox="0 0 202 100" fill="none" xmlns="http://www.w3.org/2000/svg">
<path d="M35.7337 71.6744L35.7109 61.6699H53.3003C58.3214 61.6699 63.3423 66.6721 63.3423 71.6744H35.7337Z" fill="#2AA4E7"/>
<path d="M35.7337 71.6744L35.7109 61.6699H53.3003C58.3214 61.6699 63.3423 66.6721 63.3423 71.6744H35.7337Z" fill="url(#paint0_linear_209_3)" fill-opacity="0.7"/>
<path d="M28.3223 28.3228H55.9536V38.3272H38.3267C33.3245 38.3272 28.3223 33.325 28.3223 28.3228Z" fill="#2AA4E7"/>
<path d="M28.3223 28.3228H55.9536V38.3272H38.3267C33.3245 38.3272 28.3223 33.325 28.3223 28.3228Z" fill="url(#paint1_linear_209_3)" fill-opacity="0.7"/>
<path d="M29.6324 61.6949L52.1424 31.895H59.5819L61.3786 39.345L55.7359 46.795L44.4504 61.6949C44.4504 61.6949 44.1626 62.0275 43.448 63.5758C42.8639 66.0096 42.996 66.5336 43.454 67.6846C43.6897 68.2769 43.9771 68.8517 44.3556 69.3647C44.9697 70.197 45.4274 70.6064 46.6472 71.5678C46.6916 71.6028 46.6672 71.6746 46.6107 71.6746H33.2054H31.8953C31.8953 71.6746 28.3223 69.4117 28.3223 65.6005C28.3223 64.2084 28.7709 62.8534 29.6015 61.7364L29.6324 61.6949Z" fill="#2AA4E7"/>
<path d="M29.6324 61.6949L52.1424 31.895H59.5819L61.3786 39.345L55.7359 46.795L44.4504 61.6949C44.4504 61.6949 44.1626 62.0275 43.448 63.5758C42.8639 66.0096 42.996 66.5336 43.454 67.6846C43.6897 68.2769 43.9771 68.8517 44.3556 69.3647C44.9697 70.197 45.4274 70.6064 46.6472 71.5678C46.6916 71.6028 46.6672 71.6746 46.6107 71.6746H33.2054H31.8953C31.8953 71.6746 28.3223 69.4117 28.3223 65.6005C28.3223 64.2084 28.7709 62.8534 29.6015 61.7364L29.6324 61.6949Z" fill="url(#paint2_linear_209_3)" fill-opacity="0.5"/>
<path d="M63.3384 44.2817L47.3789 28.3223L63.3384 28.3223L63.3384 44.2817Z" fill="#2AA4E7"/>
<path d="M66.0919 71.5122V42.455H75.2395V71.5122H66.0919ZM70.6956 38.4492C69.2606 38.4492 68.0649 37.9709 67.1083 37.0143C66.1915 36.0178 65.7331 34.822 65.7331 33.4269C65.7331 31.992 66.1915 30.7963 67.1083 29.8396C68.0649 28.883 69.2606 28.4047 70.6956 28.4047C72.1305 28.4047 73.3063 28.883 74.2231 29.8396C75.1398 30.7963 75.5982 31.992 75.5982 33.4269C75.5982 34.822 75.1398 36.0178 74.2231 37.0143C73.3063 37.9709 72.1305 38.4492 70.6956 38.4492ZM91.6659 72.1101C88.9156 72.1101 86.4643 71.4524 84.3119 70.1371C82.1994 68.8217 80.5253 67.0281 79.2897 64.7561C78.0939 62.4841 77.496 59.8933 77.496 56.9836C77.496 54.0739 78.0939 51.4831 79.2897 49.2111C80.5253 46.9391 82.1994 45.1455 84.3119 43.8301C86.4643 42.5148 88.9156 41.8571 91.6659 41.8571C93.6589 41.8571 95.4525 42.2358 97.0469 42.9931C98.6811 43.7504 100.016 44.8067 101.053 46.1619C102.129 47.4772 102.727 48.9919 102.846 50.7058V62.9625C102.727 64.6764 102.149 66.2309 101.112 67.626C100.076 68.9812 98.7409 70.0773 97.1067 70.9143C95.4724 71.7115 93.6589 72.1101 91.6659 72.1101ZM93.2802 63.8593C94.5955 63.8593 95.7315 63.5803 96.6881 63.0222C97.6448 62.4244 98.4021 61.6072 98.9601 60.5709C99.5181 59.5346 99.7971 58.3388 99.7971 56.9836C99.7971 55.6284 99.5181 54.4526 98.9601 53.4561C98.4419 52.4198 97.6846 51.6026 96.6881 51.0048C95.7315 50.4069 94.6155 50.1079 93.34 50.1079C92.0645 50.1079 90.9285 50.4069 89.932 51.0048C88.9754 51.6026 88.1982 52.4198 87.6003 53.4561C87.0423 54.4924 86.7633 55.6683 86.7633 56.9836C86.7633 58.299 87.0423 59.4748 87.6003 60.5111C88.1583 61.5475 88.9356 62.3646 89.932 62.9625C90.9285 63.5603 92.0446 63.8593 93.2802 63.8593ZM108.407 71.5122H99.4384V63.6799L100.814 56.6249L99.259 49.5698V28.1058H108.407V71.5122ZM131.648 71.5122V54.9508C131.648 53.4362 131.17 52.2205 130.213 51.3037C129.296 50.3471 128.121 49.8688 126.686 49.8688C125.689 49.8688 124.812 50.088 124.055 50.5265C123.298 50.925 122.7 51.5229 122.261 52.3201C121.823 53.0774 121.604 53.9543 121.604 54.9508L118.076 53.2169C118.076 50.945 118.574 48.952 119.571 47.2381C120.567 45.5241 121.942 44.2088 123.696 43.292C125.49 42.3354 127.503 41.8571 129.735 41.8571C131.887 41.8571 133.781 42.3753 135.415 43.4116C137.089 44.4081 138.404 45.7434 139.361 47.4174C140.317 49.0915 140.796 50.925 140.796 52.918V71.5122H131.648ZM112.456 71.5122V42.455H121.604V71.5122H112.456ZM153.248 71.6318L141.29 42.455H151.155L158.748 65.5931H155.101L162.874 42.455H172.739L160.303 71.6318H153.248ZM145.774 83.7688L154.503 64.9355L160.303 71.6318L155.161 83.7688H145.774Z" fill="#2AA4E7"/>
<defs>
<linearGradient id="paint0_linear_209_3" x1="63.3423" y1="66.6721" x2="29.5177" y2="66.6721" gradientUnits="userSpaceOnUse">
<stop stop-color="#2AA4E7"/>
<stop offset="1" stop-color="#0A60AD"/>
</linearGradient>
<linearGradient id="paint1_linear_209_3" x1="63.8142" y1="33.325" x2="28.3223" y2="33.325" gradientUnits="userSpaceOnUse">
<stop stop-color="#0A60AD"/>
<stop offset="1" stop-color="#2AA4E7"/>
</linearGradient>
<linearGradient id="paint2_linear_209_3" x1="55.9536" y1="37.0163" x2="28.3223" y2="71.6746" gradientUnits="userSpaceOnUse">
<stop offset="0.373376" stop-color="#2AA4E7"/>
<stop offset="1" stop-color="#C3E6F8"/>
</linearGradient>
</defs>
</svg>
